# xmcd
#
# Track frame offsets: 
#        150
#        12298
#        22856
#        35216
#        47639
#        59921
#        71474
#        81115
#        93577
#        106423
#        118360
#        129074
#        141418
#        151552
#        163450
#        178153
#        188225
#        202262
#        214512
#        225892
#        238730
#        250205
#        264219
#        275067
#        284896
#        300140
#
# Disc length: 4180 seconds
#
# Revision: 5
# Processed by: cddbd v1.5.2PL0 Copyright (c) Steve Scherf et al.
# Submitted via: ExactAudioCopyFreeDBPlugin 1.0
#
DISCID=7c10521a
DTITLE=Hank Snow - I'm Movin' On 1949-1953 Vol. 3
DYEAR=1989
DGENRE=Country
TTITLE0=The Gal Who Invented Kissin'
TTITLE1=Spanish Fire Ball
TTITLE2=Honeymoon On A Rocket Ship
TTITLE3=Between Fire And Water
TTITLE4=The Boogie Woogie Flying Cloud
TTITLE5=I Can't Control My Heart
TTITLE6=For Now And Always
TTITLE7=A Message From The Tradewinds
TTITLE8=I Traded Love
TTITLE9=The Next Voice You Hear
TTITLE10=When Mexican Joe Met Jole Blon
TTITLE11=I Went To Your Wedding
TTITLE12=Jimmie The Kid
TTITLE13=My Blue Eyed Jane
TTITLE14=When Jimmie Rodgers Said Goodbye (with Jimmie Rodgers Snow)
TTITLE15=Southern Cannonball
TTITLE16=Anniversary Blue Yodel (Blue Yodel No. 7)
TTITLE17=Why Did You Give Me Your Love
TTITLE18=Mississippi River Blues
TTITLE19=In Daddy's Footsteps
TTITLE20=The Gloryland March
TTITLE21=Christmas Roses
TTITLE22=The Reindeer Boogie
TTITLE23=Frosty The Snowman
TTITLE24=Silent Night
TTITLE25=My Mother
EXTD=
EXTT0=
EXTT1=
EXTT2=
EXTT3=
EXTT4=
EXTT5=
EXTT6=
EXTT7=
EXTT8=
EXTT9=
EXTT10=
EXTT11=
EXTT12=
EXTT13=
EXTT14=
EXTT15=
EXTT16=
EXTT17=
EXTT18=
EXTT19=
EXTT20=
EXTT21=
EXTT22=
EXTT23=
EXTT24=
EXTT25=
PLAYORDER=
